<svg width="1201" height="561" xmlns="http://www.w3.org/2000/svg" xmlns:xlink="http://www.w3.org/1999/xlink" overflow="hidden"><defs><clipPath id="clip0"><path d="M0 0 1201 0 1201 561 0 561Z" fill-rule="evenodd" clip-rule="evenodd"/></clipPath></defs><g clip-path="url(#clip0)"><rect x="0" y="0" width="1201" height="560.756" fill="#FFFFFF" transform="scale(1 1.00044)"/><path d="M0 90.7951C-1.44501e-14 40.6503 40.6503 0 90.795 0L817.205 0C867.35-1.44501e-14 908 40.6503 908 90.7951L908 453.967C908 504.112 867.35 544.763 817.205 544.763L90.795 544.763C40.6503 544.763 0 504.112 0 453.967Z" stroke="#C9C9C9" stroke-width="6.66574" stroke-miterlimit="8" fill="none" fill-rule="evenodd" transform="matrix(1 0 -0 1.00044 146.5 10.5)"/><path d="M0 27.5001C-5.37665e-15 12.3122 12.3122 0 27.5 0L141.427 0C156.614-5.37666e-15 168.927 12.3122 168.927 27.5001L168.926 27.5001C168.926 42.688 156.614 55.0002 141.426 55.0002L27.5 55C12.3122 55 0 42.6878 0 27.4999Z" stroke="#000000" stroke-width="1.99972" stroke-miterlimit="8" fill="#6682DF" fill-rule="evenodd" transform="matrix(-4.37304e-08 -1.00044 1 -4.37114e-08 541 240)"/><text fill="#FFFFFF" font-family="Arial,Arial_MSFontService,sans-serif" font-weight="400" font-size="21" transform="matrix(-1.83697e-16 -1.00087 0.999564 -1.83777e-16 576.791 192)">effConv</text><path d="M5.06154e-07-0.499931 97.0158-0.499832 97.0158 0.500029-5.06154e-07 0.499931ZM95.6827-3.99935 103.682 0.000104972 95.6827 3.99954Z" transform="matrix(1 0 -0 1.00044 437.5 155.5)"/><path d="M8.68586e-08-0.499931 597.521-0.499827 597.521 0.500034-8.68586e-08 0.499931ZM596.188-3.99934 604.187 0.000104972 596.188 3.99955Z" transform="matrix(1 0 -0 1.00044 596.5 127.5)"/><path d="M0 0 590.197 0.000104972" stroke="#000000" stroke-width="0.999861" stroke-miterlimit="8" fill="none" fill-rule="evenodd" transform="matrix(1 0 0 -1.00044 175.5 293.5)"/><path d="M0 0 0.000104972 116.808" stroke="#000000" stroke-width="0.999861" stroke-miterlimit="8" fill="none" fill-rule="evenodd" transform="matrix(1 0 0 -1.00044 176.5 410.359)"/><path d="M0 0 0.000104972 109.591" stroke="#000000" stroke-width="0.999861" stroke-miterlimit="8" fill="none" fill-rule="evenodd" transform="matrix(1 0 -0 1.00044 766.5 183.5)"/><text font-family="Arial,Arial_MSFontService,sans-serif" font-style="italic" font-weight="400" font-size="24" transform="matrix(1 0 0 1.00044 382.142 78)">capaConv<tspan x="720.824" y="37.9834">gen</tspan><tspan font-size="16" x="760.819" y="42.9813">a</tspan><tspan x="261.833" y="96.9577">stIntIn</tspan><tspan font-size="16" x="327.157" y="101.956">a</tspan></text><path d="M0 27.488C-5.34716e-15 12.3068 12.3068 0 27.488 0L140.512 0C155.693-5.34717e-15 168 12.3068 168 27.488L168 27.488C168 42.6692 155.693 54.976 140.512 54.976L27.488 54.976C12.3068 54.976 0 42.6692 0 27.488Z" stroke="#000000" stroke-width="1.99972" stroke-miterlimit="8" fill="#60AD51" fill-rule="evenodd" transform="matrix(1 0 -0 1.00044 485 382)"/><text fill="#FFFFFF" font-family="Arial,Arial_MSFontService,sans-serif" font-weight="400" font-size="21" transform="matrix(1 0 0 1.00044 545.356 418)">stDis</text><path d="M1.69664e-07-0.499931 302.645-0.499828 302.645 0.500033-1.69664e-07 0.499931ZM301.312-3.99934 309.311 0.000104972 301.312 3.99955Z" transform="matrix(1 0 -0 1.00044 175.5 409.5)"/><path d="M0 0 0.000104972 127.352" stroke="#389826" stroke-width="3.33287" stroke-miterlimit="8" fill="none" fill-rule="evenodd" transform="matrix(1 0 -0 1.00044 766.5 346.5)"/><rect x="0" y="0" width="266" height="126.945" stroke="#389826" stroke-width="3.33287" stroke-miterlimit="8" fill="none" transform="matrix(1 0 -0 1.00044 436.5 346.5)"/><text font-family="Arial,Arial_MSFontService,sans-serif" font-style="italic" font-weight="400" font-size="24" transform="matrix(1 0 0 1.00044 200.688 335)">capaStIn<tspan font-size="16" x="94.6535" y="4.99782">a</tspan><tspan x="503.857" y="0">capaStOut</tspan><tspan font-size="16" x="617.174" y="4.99782">a</tspan><tspan x="303.257" y="0">capaStSize</tspan><tspan font-size="16" x="424.574" y="4.99782">a</tspan></text><path d="M0 27.5001C-5.37665e-15 12.3122 12.3122 0 27.5 0L141.427 0C156.614-5.37666e-15 168.927 12.3122 168.927 27.5001L168.926 27.5001C168.926 42.688 156.614 55.0002 141.426 55.0002L27.5 55C12.3122 55 0 42.6878 0 27.4999Z" stroke="#000000" stroke-width="1.99972" stroke-miterlimit="8" fill="#60AD51" fill-rule="evenodd" transform="matrix(-4.37304e-08 -1.00044 1 -4.37114e-08 317 494)"/><text fill="#FFFFFF" font-family="Arial,Arial_MSFontService,sans-serif" font-weight="400" font-size="21" transform="matrix(-1.83697e-16 -1.00087 0.999564 -1.83777e-16 352.482 440)">effStIn</text><path d="M0 0 169.134 0.000104972" stroke="#000000" stroke-width="0.999861" stroke-miterlimit="8" fill="none" fill-rule="evenodd" transform="matrix(-1 -8.74228e-08 8.74609e-08 -1.00044 765.634 183.5)"/><path d="M0 0 0.000104972 127.352" stroke="#4063D8" stroke-width="3.33287" stroke-miterlimit="8" fill="none" fill-rule="evenodd" transform="matrix(1 0 -0 1.00044 436.5 92.5)"/><path d="M0 0 0.000104972 127.352" stroke="#389826" stroke-width="3.33287" stroke-miterlimit="8" fill="none" fill-rule="evenodd" transform="matrix(1 0 -0 1.00044 253.5 346.5)"/><path d="M0 28C-5.37665e-15 12.536 12.536 0 28 0L140.926 0C156.39-5.37665e-15 168.926 12.536 168.926 28L168.926 28C168.926 43.464 156.39 56 140.926 56L28 56C12.536 56 0 43.464 0 28Z" stroke="#000000" stroke-width="1.99972" stroke-miterlimit="8" fill="#60AD51" fill-rule="evenodd" transform="matrix(-4.37304e-08 -1.00044 1 -4.37114e-08 829 494)"/><text fill="#FFFFFF" font-family="Arial,Arial_MSFontService,sans-serif" font-weight="400" font-size="21" transform="matrix(-1.83697e-16 -1.00087 0.999564 -1.83777e-16 865.312 440)">effStIn</text><path d="M1.65665e-07-0.499931 310.112-0.499828 310.112 0.500033-1.65665e-07 0.499931ZM308.779-3.99934 316.778 0.000104972 308.779 3.99955Z" transform="matrix(1 0 -0 1.00044 885.5 409.5)"/><text font-family="Arial,Arial_MSFontService,sans-serif" font-style="italic" font-weight="400" font-size="24" transform="matrix(1 0 0 1.00044 1076.97 401)">stExtOut<tspan font-size="16" x="91.9873" y="4.99782">a</tspan></text><path d="M2.98128e-07-0.499931 169.362-0.49983 169.362 0.500032-2.98128e-07 0.499931ZM168.029-3.99934 176.028 0.000104972 168.029 3.99954Z" transform="matrix(1 0 -0 1.00044 653.5 409.5)"/></g></svg>