<svg width="1208" height="556" xmlns="http://www.w3.org/2000/svg" xmlns:xlink="http://www.w3.org/1999/xlink" overflow="hidden"><defs><clipPath id="clip0"><path d="M0 0 1208 0 1208 556 0 556Z" fill-rule="evenodd" clip-rule="evenodd"/></clipPath></defs><g clip-path="url(#clip0)"><rect x="0" y="0" width="1207.28" height="556" fill="#FFFFFF" transform="scale(1.0006 1)"/><path d="M0 90.6683C-1.44414e-14 40.5936 40.5935 0 90.6682 0L816.788 0C866.862-1.44414e-14 907.456 40.5936 907.456 90.6683L907.456 453.332C907.456 503.406 866.862 544 816.788 544L90.6682 544C40.5935 544 1.44414e-14 503.406 0 453.332Z" stroke="#C9C9C9" stroke-width="6.66267" stroke-miterlimit="8" fill="none" fill-rule="evenodd" transform="matrix(1.0006 0 -0 1 150.5 7.49997)"/><path d="M0 27.4836C-5.37899e-15 12.3048 12.3048 0 27.4836 0L141.517 0C156.695-5.379e-15 169 12.3048 169 27.4836L169 27.4836C169 42.6624 156.695 54.9672 141.516 54.9672L27.4836 54.967C12.3048 54.967 0 42.6622 0 27.4834Z" stroke="#000000" stroke-width="1.9988" stroke-miterlimit="8" fill="#6682DF" fill-rule="evenodd" transform="matrix(-4.37114e-08 -1 1.0006 -4.37376e-08 545 236)"/><text fill="#FFFFFF" font-family="Arial,Arial_MSFontService,sans-serif" font-weight="400" font-size="21" transform="matrix(-1.83697e-16 -0.998802 1.0006 -1.83587e-16 580.806 188)">effConv</text><path d="M9.68579e-08-0.4997 7.99521-0.499699 7.99521 0.499702-9.68579e-08 0.4997ZM10.9934-0.499698 18.9886-0.499697 18.9886 0.499704 10.9934 0.499703ZM21.9868-0.499696 29.982-0.499695 29.982 0.499706 21.9868 0.499705ZM32.9802-0.499694 40.9754-0.499692 40.9754 0.499708 32.9802 0.499707ZM43.9736-0.499692 51.9688-0.49969 51.9688 0.499711 43.9736 0.499709ZM54.967-0.49969 62.9623-0.499688 62.9623 0.499713 54.967 0.499711ZM65.9605-0.499688 73.9557-0.499686 73.9557 0.499715 65.9605 0.499713ZM76.9539-0.499686 84.9491-0.499684 84.9491 0.499717 76.9539 0.499715ZM87.9473-0.499683 95.9425-0.499682 95.9425 0.499719 87.9473 0.499717ZM98.9407-0.499681 106.936-0.49968 106.936 0.499721 98.9407 0.49972ZM109.934-0.499679 117.929-0.499678 117.929 0.499723 109.934 0.499722ZM120.927-0.499677 128.923-0.499675 128.923 0.499725 120.927 0.499724ZM131.921-0.499675 139.916-0.499673 139.916 0.499728 131.921 0.499726ZM142.914-0.499673 150.91-0.499671 150.91 0.49973 142.914 0.499728ZM153.908-0.499671 161.903-0.499669 161.903 0.499732 153.908 0.49973ZM164.901-0.499668 172.896-0.499667 172.896 0.499734 164.901 0.499732ZM175.895-0.499666 183.89-0.499665 183.89 0.499736 175.895 0.499734ZM186.888-0.499664 194.883-0.499663 194.883 0.499738 186.888 0.499737ZM197.881-0.499662 205.877-0.499661 205.877 0.49974 197.881 0.499739ZM208.875-0.49966 216.87-0.499658 216.87 0.499742 208.875 0.499741ZM219.868-0.499658 227.863-0.499656 227.863 0.499745 219.868 0.499743ZM230.862-0.499656 238.857-0.499654 238.857 0.499747 230.862 0.499745ZM241.855-0.499654 249.85-0.499652 249.85 0.499749 241.855 0.499747ZM252.848-0.499651 260.844-0.49965 260.844 0.499751 252.848 0.499749ZM263.842-0.499649 271.837-0.499648 271.837 0.499753 263.842 0.499752ZM274.835-0.499647 282.83-0.499646 282.83 0.499755 274.835 0.499754ZM285.829-0.499645 293.824-0.499643 293.824 0.499757 285.829 0.499756ZM296.822-0.499643 304.817-0.499641 304.817 0.499759 296.822 0.499758ZM307.815-0.499641 315.811-0.499639 315.811 0.499762 307.815 0.49976ZM318.809-0.499639 326.804-0.499637 326.804 0.499764 318.809 0.499762ZM329.802-0.499636 337.797-0.499635 337.797 0.499766 329.802 0.499764ZM340.796-0.499634 348.791-0.499633 348.791 0.499768 340.796 0.499766ZM351.789-0.499632 359.784-0.499631 359.784 0.49977 351.789 0.499769ZM362.783-0.49963 370.778-0.499629 370.778 0.499772 362.783 0.499771ZM373.776-0.499628 381.771-0.499626 381.771 0.499774 373.776 0.499773ZM384.769-0.499626 392.765-0.499624 392.765 0.499777 384.769 0.499775ZM395.763-0.499624 403.758-0.499622 403.758 0.499779 395.763 0.499777ZM406.756-0.499622 414.751-0.49962 414.751 0.499781 406.756 0.499779ZM417.75-0.499619 425.745-0.499618 425.745 0.499783 417.75 0.499781ZM428.743-0.499617 436.738-0.499616 436.738 0.499785 428.743 0.499784ZM439.736-0.499615 447.732-0.499614 447.732 0.499787 439.736 0.499786ZM450.73-0.499613 458.725-0.499611 458.725 0.499789 450.73 0.499788ZM461.723-0.499611 469.718-0.499609 469.718 0.499791 461.723 0.49979ZM472.717-0.499609 480.712-0.499607 480.712 0.499794 472.717 0.499792ZM483.71-0.499607 491.705-0.499605 491.705 0.499796 483.71 0.499794ZM494.703-0.499605 502.699-0.499603 502.699 0.499798 494.703 0.499796ZM505.697-0.499602 513.692-0.499601 513.692 0.4998 505.697 0.499798ZM516.69-0.4996 524.685-0.499599 524.685 0.499802 516.69 0.499801ZM527.684-0.499598 534.651-0.499597 534.651 0.499804 527.684 0.499803ZM533.319-3.9975 541.314 0.000104924 533.319 3.99771Z" transform="matrix(1.0006 0 -0 1 3.50005 123.5)"/><path d="M8.68186e-08-0.4997 597.246-0.499597 597.246 0.499804-8.68186e-08 0.4997ZM595.914-3.9975 603.909 0.000104924 595.914 3.99771Z" transform="matrix(1.0006 0 -0 1 600.5 152.5)"/><path d="M0 0-716.744-0.000209848" stroke="#000000" stroke-width="0.999401" stroke-miterlimit="8" fill="none" fill-rule="evenodd" transform="matrix(-1.0006 -0 -0 1 256.5 290.5)"/><path d="M0 0 0.000104924 110.251" stroke="#000000" stroke-width="0.999401" stroke-miterlimit="8" fill="none" fill-rule="evenodd" transform="matrix(1.0006 0 -0 1 257.5 179.5)"/><text font-family="Arial,Arial_MSFontService,sans-serif" font-style="italic" font-weight="400" font-size="24" transform="matrix(1 0 0 0.999401 386.13 74)">capaConv<tspan x="720.703" y="68.0408">gen</tspan><tspan font-size="16" x="760.703" y="73.0438">b</tspan><tspan x="-102.516" y="96.0576">stIntOut</tspan><tspan font-size="16" x="-18.5157" y="101.061">a</tspan></text><path d="M0 27.5C-5.34396e-15 12.3122 12.3121 0 27.4999 0L140.399 0C155.587-5.34397e-15 167.899 12.3122 167.899 27.5L167.899 27.5C167.899 42.6878 155.587 55 140.399 55L27.4999 55C12.3121 55 0 42.6878 0 27.5Z" stroke="#000000" stroke-width="1.9988" stroke-miterlimit="8" fill="#60AD51" fill-rule="evenodd" transform="matrix(1.0006 0 -0 1 489 378)"/><text fill="#FFFFFF" font-family="Arial,Arial_MSFontService,sans-serif" font-weight="400" font-size="21" transform="matrix(1 0 0 0.999401 549.367 414)">stDis</text><path d="M1.08088e-07-0.4997 478.409-0.499597 478.409 0.499804-1.08088e-07 0.4997ZM477.077-3.9975 485.072 0.000104924 477.077 3.99771Z" transform="matrix(1.0006 0 -0 1 3.50005 406.5)"/><path d="M0 0 0.000104924 127.294" stroke="#389826" stroke-width="3.33134" stroke-miterlimit="8" fill="none" fill-rule="evenodd" transform="matrix(1.0006 0 -0 1 770.5 342.5)"/><rect x="0" y="0" width="265.841" height="127" stroke="#389826" stroke-width="3.33134" stroke-miterlimit="8" fill="none" transform="matrix(1.0006 0 -0 1 440.5 342.5)"/><text font-family="Arial,Arial_MSFontService,sans-serif" font-style="italic" font-weight="400" font-size="24" transform="matrix(1 0 0 0.999401 204.651 331)">capaStIn<tspan font-size="16" x="94.6667" y="5.003">a</tspan><tspan x="503.927" y="0">capaStOut</tspan><tspan font-size="16" x="617.26" y="5.003">a</tspan><tspan x="303.3" y="0">capaStSize</tspan><tspan font-size="16" x="424.633" y="5.003">a</tspan></text><path d="M0 27.9832C-5.37899e-15 12.5285 12.5285 0 27.9831 0L141.017 0C156.472-5.379e-15 169 12.5285 169 27.9832L169 27.9832C169 43.4379 156.472 55.9664 141.017 55.9664L27.9831 55.9664C12.5285 55.9664 0 43.4379 0 27.9832Z" stroke="#000000" stroke-width="1.9988" stroke-miterlimit="8" fill="#60AD51" fill-rule="evenodd" transform="matrix(-4.37114e-08 -1 1.0006 -4.37376e-08 320 490)"/><text fill="#FFFFFF" font-family="Arial,Arial_MSFontService,sans-serif" font-weight="400" font-size="21" transform="matrix(-1.83697e-16 -0.998802 1.0006 -1.83587e-16 356.465 436)">effStIn</text><path d="M-6.66269 0.499698-288.25 0.499595-288.25-0.499805-6.66269-0.499703ZM-7.9952-3.99761 0 0-7.99521 3.9976Z" transform="matrix(1.0006 8.74752e-08 8.74228e-08 -1 544.923 179.5)"/><path d="M0 0 0.000104924 127.294" stroke="#4063D8" stroke-width="3.33134" stroke-miterlimit="8" fill="none" fill-rule="evenodd" transform="matrix(1.0006 0 -0 1 440.5 88.5)"/><path d="M0 0 0.000104924 127.294" stroke="#389826" stroke-width="3.33134" stroke-miterlimit="8" fill="none" fill-rule="evenodd" transform="matrix(1.0006 0 -0 1 257.5 342.5)"/><path d="M0 27.9832C-5.37899e-15 12.5285 12.5285 0 27.9831 0L141.017 0C156.472-5.379e-15 169 12.5285 169 27.9832L169 27.9832C169 43.4379 156.472 55.9664 141.017 55.9664L27.9831 55.9664C12.5285 55.9664 0 43.4379 0 27.9832Z" stroke="#000000" stroke-width="1.9988" stroke-miterlimit="8" fill="#60AD51" fill-rule="evenodd" transform="matrix(-4.37114e-08 -1 1.0006 -4.37376e-08 833 490)"/><text fill="#FFFFFF" font-family="Arial,Arial_MSFontService,sans-serif" font-weight="400" font-size="21" transform="matrix(-1.83697e-16 -0.998802 1.0006 -1.83587e-16 869.367 436)">effStIn</text><path d="M1.65588e-07-0.4997 309.969-0.499598 309.969 0.499803-1.65588e-07 0.4997ZM308.637-3.9975 316.632 0.000104924 308.637 3.99771Z" transform="matrix(1.0006 0 -0 1 889.5 433.5)"/><text font-family="Arial,Arial_MSFontService,sans-serif" font-style="italic" font-weight="400" font-size="24" transform="matrix(1 0 0 0.999401 1080.61 424)">stExtOut<tspan font-size="16" x="92" y="5.003">a</tspan></text><path d="M2.9799e-07-0.4997 169.285-0.499599 169.285 0.499801-2.9799e-07 0.4997ZM167.952-3.9975 175.947 0.000104924 167.952 3.9977Z" transform="matrix(1.0006 0 -0 1 657.5 406.5)"/><path d="M0 0-84.4715-0.000104924" stroke="#000000" stroke-width="0.999401" stroke-miterlimit="8" fill="none" fill-rule="evenodd" transform="matrix(1.0006 8.74752e-08 8.74228e-08 -1 974.022 378.5)"/><path d="M0 0 0.000104924 88.2781" stroke="#000000" stroke-width="0.999401" stroke-miterlimit="8" fill="none" fill-rule="evenodd" transform="matrix(1.0006 0 -0 1 974.5 290.5)"/><text font-family="Arial,Arial_MSFontService,sans-serif" font-style="italic" font-weight="400" font-size="24" transform="matrix(1 0 0 0.999401 45.2865 114)">(use<tspan font-size="16" x="46.6667" y="5.003">a</tspan><tspan x="55.5" y="0">)</tspan><tspan x="-9.55417" y="283.17">stExtIn</tspan><tspan font-size="16" x="63.7792" y="288.173">a</tspan></text></g></svg>