<svg width="774" height="299" xmlns="http://www.w3.org/2000/svg" xmlns:xlink="http://www.w3.org/1999/xlink" overflow="hidden"><defs><clipPath id="clip0"><path d="M0 0 774 0 774 299 0 299Z" fill-rule="evenodd" clip-rule="evenodd"/></clipPath></defs><g clip-path="url(#clip0)"><rect x="0" y="0" width="772.805" height="299" fill="#FFFFFF" transform="scale(1.00155 1)"/><path d="M0 48.1674C-8.99351e-15 21.5653 21.5653 0 48.1674 0L516.959 0C543.561 0 565.126 21.5653 565.126 48.1674L565.126 240.833C565.126 267.435 543.561 289 516.959 289L48.1674 289C21.5653 289 0 267.435 0 240.833Z" stroke="#C9C9C9" stroke-width="6.65924" stroke-miterlimit="8" fill="none" fill-rule="evenodd" transform="matrix(1.00155 0 -0 1 104.5 5.50001)"/><text fill="#FFFFFF" font-family="Calibri,Calibri_MSFontService,sans-serif" font-weight="400" font-size="24" transform="matrix(1 0 0 0.998456 376.162 157)">ac</text><path d="M2.16772e-07-0.499443 234.961-0.499341C235.237-0.499341 235.461-0.275733 235.461 0.000102196 235.461 0.275937 235.237 0.499545 234.961 0.499545L-2.16772e-07 0.499443C-0.275835 0.499443-0.499443 0.275835-0.499443-2.16772e-07-0.499443-0.275835-0.275835-0.499443 2.16772e-07-0.499443ZM233.629-3.99544 241.62 0.00010487 233.629 3.99565Z" transform="matrix(1.00155 0 -0 1 0.499953 105.5)"/><text font-family="Arial,Arial_MSFontService,sans-serif" font-style="italic" font-weight="400" font-size="24" transform="matrix(1 0 0 0.998456 27.4086 96)">use<tspan font-size="16" x="38.6833" y="4.00618">a</tspan></text><path d="M2.16772e-07-0.499443 234.961-0.499341 234.961 0.499545-2.16772e-07 0.499443ZM233.629-3.99544 241.62 0.00010487 233.629 3.99565Z" transform="matrix(1.00155 0 -0 1 0.499953 150.5)"/><path d="M2.16772e-07-0.499443 234.961-0.499341 234.961 0.499545-2.16772e-07 0.499443ZM233.629-3.99544 241.62 0.00010487 233.629 3.99565Z" transform="matrix(1.00155 0 -0 1 530.5 105.5)"/><text font-family="Arial,Arial_MSFontService,sans-serif" font-weight="400" font-size="24" transform="matrix(6.12323e-17 0.996915 -1.00155 6.11378e-17 48.633 166)">…</text><path d="M-2.16772e-07 0.499443-234.961 0.499341-234.961-0.499545 2.16772e-07-0.499443ZM-233.629 3.99544-241.62-0.00010487-233.629-3.99565Z" transform="matrix(-1.00155 -0 -0 1 530.5 150.5)"/><path d="M2.16772e-07-0.499443 234.961-0.499341 234.961 0.499545-2.16772e-07 0.499443ZM233.629-3.99544 241.62 0.00010487 233.629 3.99565Z" transform="matrix(1.00155 0 -0 1 0.499953 194.5)"/><path d="M2.16772e-07-0.499443 234.961-0.499341 234.961 0.499545-2.16772e-07 0.499443ZM233.629-3.99544 241.62 0.00010487 233.629 3.99565Z" transform="matrix(1.00155 0 -0 1 530.5 194.5)"/><path d="M0 0 0.00010487 168.757" stroke="#4063D8" stroke-width="3.32962" stroke-miterlimit="8" fill="none" fill-rule="evenodd" transform="matrix(1.00155 0 -0 1 174.5 65.5)"/><text font-family="Arial,Arial_MSFontService,sans-serif" font-style="italic" font-weight="400" font-size="24" transform="matrix(1 0 0 0.998456 119.656 58)">capaConv</text><path d="M0 27.4576C-5.37899e-15 12.2932 12.2931 0 27.4575 0L141.543 0C156.707-5.379e-15 169 12.2932 169 27.4576L169 27.4576C169 42.622 156.707 54.9152 141.543 54.9152L27.4575 54.9152C12.2931 54.9152 0 42.622 0 27.4576Z" stroke="#000000" stroke-width="1.99777" stroke-miterlimit="8" fill="#6682DF" fill-rule="evenodd" transform="matrix(-4.37114e-08 -1 1.00155 -4.3779e-08 359 234)"/><text fill="#FFFFFF" font-family="Calibri,Calibri_MSFontService,sans-serif" font-weight="400" font-size="21" transform="matrix(-1.83697e-16 -0.996915 1.00155 -1.83413e-16 393.599 182)">effConv</text><path d="M0 27.4575C-5.37899e-15 12.2932 12.2931 0 27.4575 0L141.543 0C156.707-5.37899e-15 169 12.2932 169 27.4575L169 27.4575C169 42.6219 156.707 54.9151 141.543 54.9151L27.4575 54.9151C12.2931 54.9151 0 42.6219 0 27.4575Z" stroke="#000000" stroke-width="1.99777" stroke-miterlimit="8" stroke-opacity="0.6" fill="#6682DF" fill-rule="evenodd" fill-opacity="0.6" transform="matrix(-4.37114e-08 -1 1.00155 -4.3779e-08 244 234)"/><text fill="#FFFFFF" font-family="Calibri,Calibri_MSFontService,sans-serif" font-weight="400" font-size="21" transform="matrix(-1.83697e-16 -0.996915 1.00155 -1.83413e-16 278.684 205)">ratioEnerUse</text><path d="M0 27.4575C-5.37899e-15 12.2932 12.2931 0 27.4575 0L141.543 0C156.707-5.37899e-15 169 12.2932 169 27.4575L169 27.4575C169 42.6219 156.707 54.9151 141.543 54.9151L27.4575 54.9151C12.2931 54.9151 0 42.6219 0 27.4575Z" stroke="#000000" stroke-width="1.99777" stroke-miterlimit="8" stroke-opacity="0.6" fill="#6682DF" fill-rule="evenodd" fill-opacity="0.6" transform="matrix(-4.37114e-08 -1 1.00155 -4.3779e-08 475 234)"/><text fill="#FFFFFF" font-family="Calibri,Calibri_MSFontService,sans-serif" font-weight="400" font-size="21" transform="matrix(-1.83697e-16 -0.996915 1.00155 -1.83413e-16 509.735 207)">ratioEnerGen</text><path d="M-0.000121138 0.499443-52.5755 0.486691-52.5753-0.512195 0.000121138-0.499443ZM-51.2445 3.98312-59.2346-0.0143672-51.2426-4.00797Z" transform="matrix(-1.00155 -0 -0 1 299.5 149.514)"/><path d="M8.75217e-07-0.499443 53.1849-0.49935 53.1849 0.499536-8.75217e-07 0.499443ZM51.8531-3.99545 59.8442 0.00010487 51.8531 3.99564Z" transform="matrix(1.00155 0 -0 1 415.5 150.5)"/><text font-family="Arial,Arial_MSFontService,sans-serif" font-style="italic" font-weight="400" font-size="24" transform="matrix(1 0 0 0.998456 27.9238 140)">use<tspan font-size="16" x="38.6833" y="5.00773">b</tspan></text><text font-family="Arial,Arial_MSFontService,sans-serif" font-weight="400" font-size="24" transform="matrix(6.12323e-17 0.996915 -1.00155 6.11378e-17 721.655 166)">…</text><text font-family="Arial,Arial_MSFontService,sans-serif" font-style="italic" font-weight="400" font-size="24" transform="matrix(1 0 0 0.998456 698.306 96)">gen<tspan font-size="16" x="40.0172" y="4.00618">c</tspan><tspan x="-0.41687" y="44.068">gen</tspan><tspan font-size="16" x="39.6003" y="49.0758">d</tspan></text></g></svg>