<?xml version="1.0" encoding="UTF-8"?>
<svg xmlns="http://www.w3.org/2000/svg"
     xmlns:xlink="http://www.w3.org/1999/xlink"
     version="1.2"
     width="280mm" height="160mm" viewBox="0 0 280 160"
     stroke="none"
     fill="#000000"
     stroke-width="0.3"
     font-size="3.88"
>
<defs>
  <marker id="arrow" markerWidth="15" markerHeight="7" refX="5" refY="3.5" orient="auto" markerUnits="strokeWidth">
    <path d="M0,0 L15,3.5 L0,7 z" stroke="context-stroke" fill="context-stroke"/>
  </marker>
</defs>
<g stroke-width="1" fill="#000000" fill-opacity="0.000" stroke="#D3D3D3" id="img-e4024e54-1">
  <g transform="translate(76.36,41.11)">
    <path fill="none" d="M-46.23,24.22 L 46.23 -24.22" class="primitive"/>
  </g>
  <g transform="translate(97.16,41.11)">
    <path fill="none" d="M-27.14,23.39 L 27.14 -23.39" class="primitive"/>
  </g>
  <g transform="translate(117.96,96.67)">
    <path fill="none" d="M9.33,-22.65 L -9.33 22.65" class="primitive"/>
  </g>
  <g transform="translate(140.83,96.67)">
    <path fill="none" d="M-9.33,-22.65 L 9.33 22.65" class="primitive"/>
  </g>
  <g transform="translate(129.39,41.11)">
    <path fill="none" d="M0,22.51 L 0 -22.51" class="primitive"/>
  </g>
  <g transform="translate(193.86,96.67)">
    <path fill="none" d="M0,-22.51 L 0 22.51" class="primitive"/>
  </g>
  <g transform="translate(161.63,41.11)">
    <path fill="none" d="M27.14,23.39 L -27.14 -23.39" class="primitive"/>
  </g>
  <g transform="translate(182.42,41.11)">
    <path fill="none" d="M46.23,24.22 L -46.23 -24.22" class="primitive"/>
  </g>
</g>
<g stroke-width="1" stroke="#D3D3D3" id="img-e4024e54-2">
</g>
<g font-size="4" stroke="#000000" stroke-opacity="0.000" fill="#000000" id="img-e4024e54-3">
</g>
<g stroke-width="0" stroke="#000000" stroke-opacity="0.000" id="img-e4024e54-4">
  <g transform="translate(23.33,68.89)" fill="#FF6455">
    <circle cx="0" cy="0" r="8.85" class="primitive"/>
  </g>
  <g transform="translate(64.93,68.89)" fill="#FF6455">
    <circle cx="0" cy="0" r="8.85" class="primitive"/>
  </g>
  <g transform="translate(129.39,68.89)" fill="#FF6455">
    <circle cx="0" cy="0" r="8.85" class="primitive"/>
  </g>
  <g transform="translate(193.86,68.89)" fill="#FF6455">
    <circle cx="0" cy="0" r="8.85" class="primitive"/>
  </g>
  <g transform="translate(235.45,68.89)" fill="#FF6455">
    <circle cx="0" cy="0" r="8.85" class="primitive"/>
  </g>
  <g transform="translate(106.52,124.44)" fill="#FF8C77">
    <circle cx="0" cy="0" r="8.85" class="primitive"/>
  </g>
  <g transform="translate(152.27,124.44)" fill="#FF8C77">
    <circle cx="0" cy="0" r="8.85" class="primitive"/>
  </g>
  <g transform="translate(193.86,124.44)" fill="#FF8C77">
    <circle cx="0" cy="0" r="8.85" class="primitive"/>
  </g>
  <g transform="translate(129.39,13.33)" fill="#CB3C33">
    <circle cx="0" cy="0" r="8.85" class="primitive"/>
  </g>
  <g transform="translate(256.67,146.67)" fill="#FFFFFF">
    <circle cx="0" cy="0" r="8.85" class="primitive"/>
  </g>
</g>
<g font-size="7" stroke="#000000" stroke-opacity="0.000" fill="#000000" id="img-e4024e54-5">
  <g transform="translate(42.9,57.71)">
    <g class="primitive">
      <text text-anchor="middle" dy="0.35em">coal</text>
    </g>
  </g>
  <g transform="translate(84.49,57.71)">
    <g class="primitive">
      <text text-anchor="middle" dy="0.35em">electricity</text>
    </g>
  </g>
  <g transform="translate(148.96,57.71)">
    <g class="primitive">
      <text text-anchor="middle" dy="0.35em">gas</text>
    </g>
  </g>
  <g transform="translate(213.43,57.71)">
    <g class="primitive">
      <text text-anchor="middle" dy="0.35em">heat</text>
    </g>
  </g>
  <g transform="translate(255.02,57.71)">
    <g class="primitive">
      <text text-anchor="middle" dy="0.35em">hydrogen</text>
    </g>
  </g>
  <g transform="translate(126.08,113.26)">
    <g class="primitive">
      <text text-anchor="middle" dy="0.35em">naturalGas</text>
    </g>
  </g>
  <g transform="translate(171.84,113.26)">
    <g class="primitive">
      <text text-anchor="middle" dy="0.35em">synthGas</text>
    </g>
  </g>
  <g transform="translate(213.43,113.26)">
    <g class="primitive">
      <text text-anchor="middle" dy="0.35em">districtHeat</text>
    </g>
  </g>
  <g transform="translate(148.96,2.15)">
    <g class="primitive">
      <text text-anchor="middle" dy="0.35em"></text>
    </g>
  </g>
  <g transform="translate(276.23,135.49)">
    <g class="primitive">
      <text text-anchor="middle" dy="0.35em"></text>
    </g>
  </g>
</g>
</svg>
