<?xml version="1.0" encoding="UTF-8"?>
<svg xmlns="http://www.w3.org/2000/svg"
     xmlns:xlink="http://www.w3.org/1999/xlink"
     version="1.2"
     width="280mm" height="160mm" viewBox="0 0 280 160"
     stroke="none"
     fill="#000000"
     stroke-width="0.3"
     font-size="3.88"
>
<defs>
  <marker id="arrow" markerWidth="15" markerHeight="7" refX="5" refY="3.5" orient="auto" markerUnits="strokeWidth">
    <path d="M0,0 L15,3.5 L0,7 z" stroke="context-stroke" fill="context-stroke"/>
  </marker>
</defs>
<g stroke-width="1" fill="#000000" fill-opacity="0.000" stroke="#D3D3D3" id="img-229f5bae-1">
  <g transform="translate(39.65,96.67)">
    <path fill="none" d="M13.04,-22.19 L -13.04 22.19" class="primitive"/>
  </g>
  <g transform="translate(72.28,96.67)">
    <path fill="none" d="M-13.04,-22.19 L 13.04 22.19" class="primitive"/>
  </g>
  <g transform="translate(92.68,41.11)">
    <path fill="none" d="M-30.5,23.08 L 30.5 -23.08" class="primitive"/>
  </g>
  <g transform="translate(186.5,96.67)">
    <path fill="none" d="M13.04,-22.19 L -13.04 22.19" class="primitive"/>
  </g>
  <g transform="translate(219.14,96.67)">
    <path fill="none" d="M-13.04,-22.19 L 13.04 22.19" class="primitive"/>
  </g>
  <g transform="translate(166.11,41.11)">
    <path fill="none" d="M30.5,23.08 L -30.5 -23.08" class="primitive"/>
  </g>
</g>
<g stroke-width="1" stroke="#D3D3D3" id="img-229f5bae-2">
</g>
<g font-size="4" stroke="#000000" stroke-opacity="0.000" fill="#000000" id="img-229f5bae-3">
</g>
<g stroke-width="0" stroke="#000000" stroke-opacity="0.000" id="img-229f5bae-4">
  <g transform="translate(55.97,68.89)" fill="#5A8BFF">
    <circle cx="0" cy="0" r="9.9" class="primitive"/>
  </g>
  <g transform="translate(202.82,68.89)" fill="#5A8BFF">
    <circle cx="0" cy="0" r="9.9" class="primitive"/>
  </g>
  <g transform="translate(23.33,124.44)" fill="#73B2FF">
    <circle cx="0" cy="0" r="9.9" class="primitive"/>
  </g>
  <g transform="translate(88.6,124.44)" fill="#73B2FF">
    <circle cx="0" cy="0" r="9.9" class="primitive"/>
  </g>
  <g transform="translate(170.19,124.44)" fill="#73B2FF">
    <circle cx="0" cy="0" r="9.9" class="primitive"/>
  </g>
  <g transform="translate(235.45,124.44)" fill="#73B2FF">
    <circle cx="0" cy="0" r="9.9" class="primitive"/>
  </g>
  <g transform="translate(129.39,13.33)" fill="#4063D8">
    <circle cx="0" cy="0" r="9.9" class="primitive"/>
  </g>
  <g transform="translate(256.67,146.67)" fill="#FFFFFF">
    <circle cx="0" cy="0" r="9.9" class="primitive"/>
  </g>
</g>
<g font-size="7" stroke="#000000" stroke-opacity="0.000" fill="#000000" id="img-229f5bae-5">
  <g transform="translate(77.84,56.39)">
    <g class="primitive">
      <text text-anchor="middle" dy="0.35em">East</text>
    </g>
  </g>
  <g transform="translate(224.7,56.39)">
    <g class="primitive">
      <text text-anchor="middle" dy="0.35em">West</text>
    </g>
  </g>
  <g transform="translate(45.21,111.94)">
    <g class="primitive">
      <text text-anchor="middle" dy="0.35em">EastNorth</text>
    </g>
  </g>
  <g transform="translate(110.48,111.94)">
    <g class="primitive">
      <text text-anchor="middle" dy="0.35em">EastSouth</text>
    </g>
  </g>
  <g transform="translate(192.06,111.94)">
    <g class="primitive">
      <text text-anchor="middle" dy="0.35em">WestNorth</text>
    </g>
  </g>
  <g transform="translate(257.33,111.94)">
    <g class="primitive">
      <text text-anchor="middle" dy="0.35em">WestSouth</text>
    </g>
  </g>
  <g transform="translate(151.27,0.83)">
    <g class="primitive">
      <text text-anchor="middle" dy="0.35em"></text>
    </g>
  </g>
  <g transform="translate(278.54,134.17)">
    <g class="primitive">
      <text text-anchor="middle" dy="0.35em"></text>
    </g>
  </g>
</g>
</svg>
