<?xml version="1.0" encoding="UTF-8"?>
<svg xmlns="http://www.w3.org/2000/svg"
     xmlns:xlink="http://www.w3.org/1999/xlink"
     version="1.2"
     width="280mm" height="160mm" viewBox="0 0 280 160"
     stroke="none"
     fill="#000000"
     stroke-width="0.3"
     font-size="3.88"
>
<defs>
  <marker id="arrow" markerWidth="15" markerHeight="7" refX="5" refY="3.5" orient="auto" markerUnits="strokeWidth">
    <path d="M0,0 L15,3.5 L0,7 z" stroke="context-stroke" fill="context-stroke"/>
  </marker>
</defs>
<g stroke-width="1" fill="#000000" fill-opacity="0.000" stroke="#D3D3D3" id="img-6d962c7f-1">
  <g transform="translate(74.6,31.85)">
    <path fill="none" d="M-45.1,16.29 L 45.1 -16.29" class="primitive"/>
  </g>
  <g transform="translate(95.81,31.85)">
    <path fill="none" d="M-25.09,15.46 L 25.09 -15.46" class="primitive"/>
  </g>
  <g transform="translate(106.41,68.89)">
    <path fill="none" d="M-6.92,-14.5 L 6.92 14.5" class="primitive"/>
  </g>
  <g transform="translate(88.74,68.89)">
    <path fill="none" d="M6.92,-14.5 L -6.92 14.5" class="primitive"/>
  </g>
  <g transform="translate(111.72,31.85)">
    <path fill="none" d="M-11.23,14.7 L 11.23 -14.7" class="primitive"/>
  </g>
  <g transform="translate(138.23,31.85)">
    <path fill="none" d="M9.77,14.63 L -9.77 -14.63" class="primitive"/>
  </g>
  <g transform="translate(173.59,68.89)">
    <path fill="none" d="M6.92,-14.5 L -6.92 14.5" class="primitive"/>
  </g>
  <g transform="translate(191.26,68.89)">
    <path fill="none" d="M-6.92,-14.5 L 6.92 14.5" class="primitive"/>
  </g>
  <g transform="translate(154.14,31.85)">
    <path fill="none" d="M23.49,15.38 L -23.49 -15.38" class="primitive"/>
  </g>
  <g transform="translate(180.66,31.85)">
    <path fill="none" d="M48.52,16.4 L -48.52 -16.4" class="primitive"/>
  </g>
  <g transform="translate(104.65,105.93)">
    <path fill="none" d="M8.34,-14.56 L -8.34 14.56" class="primitive"/>
  </g>
  <g transform="translate(125.86,105.93)">
    <path fill="none" d="M-8.34,-14.56 L 8.34 14.56" class="primitive"/>
  </g>
  <g transform="translate(189.49,105.93)">
    <path fill="none" d="M8.34,-14.56 L -8.34 14.56" class="primitive"/>
  </g>
  <g transform="translate(210.71,105.93)">
    <path fill="none" d="M-8.34,-14.56 L 8.34 14.56" class="primitive"/>
  </g>
</g>
<g stroke-width="1" stroke="#D3D3D3" id="img-6d962c7f-2">
</g>
<g font-size="4" stroke="#000000" stroke-opacity="0.000" fill="#000000" id="img-6d962c7f-3">
</g>
<g stroke-width="0" stroke="#000000" stroke-opacity="0.000" id="img-6d962c7f-4">
  <g transform="translate(23.33,50.37)" fill="#BA6EDE">
    <circle cx="0" cy="0" r="7" class="primitive"/>
  </g>
  <g transform="translate(65.76,50.37)" fill="#BA6EDE">
    <circle cx="0" cy="0" r="7" class="primitive"/>
  </g>
  <g transform="translate(97.58,50.37)" fill="#BA6EDE">
    <circle cx="0" cy="0" r="7" class="primitive"/>
  </g>
  <g transform="translate(150.61,50.37)" fill="#BA6EDE">
    <circle cx="0" cy="0" r="7" class="primitive"/>
  </g>
  <g transform="translate(182.42,50.37)" fill="#BA6EDE">
    <circle cx="0" cy="0" r="7" class="primitive"/>
  </g>
  <g transform="translate(235.45,50.37)" fill="#BA6EDE">
    <circle cx="0" cy="0" r="7" class="primitive"/>
  </g>
  <g transform="translate(115.25,87.41)" fill="#DF84FF">
    <circle cx="0" cy="0" r="7" class="primitive"/>
  </g>
  <g transform="translate(79.9,87.41)" fill="#DF84FF">
    <circle cx="0" cy="0" r="7" class="primitive"/>
  </g>
  <g transform="translate(164.75,87.41)" fill="#DF84FF">
    <circle cx="0" cy="0" r="7" class="primitive"/>
  </g>
  <g transform="translate(200.1,87.41)" fill="#DF84FF">
    <circle cx="0" cy="0" r="7" class="primitive"/>
  </g>
  <g transform="translate(94.04,124.44)" fill="#FF9AFF">
    <circle cx="0" cy="0" r="7" class="primitive"/>
  </g>
  <g transform="translate(136.46,124.44)" fill="#FF9AFF">
    <circle cx="0" cy="0" r="7" class="primitive"/>
  </g>
  <g transform="translate(178.89,124.44)" fill="#FF9AFF">
    <circle cx="0" cy="0" r="7" class="primitive"/>
  </g>
  <g transform="translate(221.31,124.44)" fill="#FF9AFF">
    <circle cx="0" cy="0" r="7" class="primitive"/>
  </g>
  <g transform="translate(125.86,13.33)" fill="#9558B2">
    <circle cx="0" cy="0" r="7" class="primitive"/>
  </g>
  <g transform="translate(256.67,146.67)" fill="#FFFFFF">
    <circle cx="0" cy="0" r="7" class="primitive"/>
  </g>
</g>
<g font-size="7" stroke="#000000" stroke-opacity="0.000" fill="#000000" id="img-6d962c7f-5">
  <g transform="translate(38.8,41.53)">
    <g class="primitive">
      <text text-anchor="middle" dy="0.35em">electrolysis</text>
    </g>
  </g>
  <g transform="translate(81.23,41.53)">
    <g class="primitive">
      <text text-anchor="middle" dy="0.35em">fuelCell</text>
    </g>
  </g>
  <g transform="translate(113.04,41.53)">
    <g class="primitive">
      <text text-anchor="middle" dy="0.35em">gasPlant</text>
    </g>
  </g>
  <g transform="translate(166.07,41.53)">
    <g class="primitive">
      <text text-anchor="middle" dy="0.35em">heatpump</text>
    </g>
  </g>
  <g transform="translate(197.89,41.53)">
    <g class="primitive">
      <text text-anchor="middle" dy="0.35em">solar</text>
    </g>
  </g>
  <g transform="translate(250.92,41.53)">
    <g class="primitive">
      <text text-anchor="middle" dy="0.35em">wind</text>
    </g>
  </g>
  <g transform="translate(130.72,78.57)">
    <g class="primitive">
      <text text-anchor="middle" dy="0.35em">ccgtPlant</text>
    </g>
  </g>
  <g transform="translate(95.37,78.57)">
    <g class="primitive">
      <text text-anchor="middle" dy="0.35em">ocgtPlant</text>
    </g>
  </g>
  <g transform="translate(180.22,78.57)">
    <g class="primitive">
      <text text-anchor="middle" dy="0.35em">openspace</text>
    </g>
  </g>
  <g transform="translate(215.57,78.57)">
    <g class="primitive">
      <text text-anchor="middle" dy="0.35em">rooftop</text>
    </g>
  </g>
  <g transform="translate(109.51,115.61)">
    <g class="primitive">
      <text text-anchor="middle" dy="0.35em">noCHP</text>
    </g>
  </g>
  <g transform="translate(151.93,115.61)">
    <g class="primitive">
      <text text-anchor="middle" dy="0.35em">CHP</text>
    </g>
  </g>
  <g transform="translate(194.36,115.61)">
    <g class="primitive">
      <text text-anchor="middle" dy="0.35em">photovoltaic</text>
    </g>
  </g>
  <g transform="translate(236.78,115.61)">
    <g class="primitive">
      <text text-anchor="middle" dy="0.35em">solarThermal</text>
    </g>
  </g>
  <g transform="translate(141.33,4.49)">
    <g class="primitive">
      <text text-anchor="middle" dy="0.35em"></text>
    </g>
  </g>
  <g transform="translate(272.13,137.83)">
    <g class="primitive">
      <text text-anchor="middle" dy="0.35em"></text>
    </g>
  </g>
</g>
</svg>
