<?xml version="1.0" encoding="UTF-8"?>
<svg xmlns="http://www.w3.org/2000/svg"
     xmlns:xlink="http://www.w3.org/1999/xlink"
     version="1.2"
     width="280mm" height="160mm" viewBox="0 0 280 160"
     stroke="none"
     fill="#000000"
     stroke-width="0.3"
     font-size="3.88"
>
<defs>
  <marker id="arrow" markerWidth="15" markerHeight="7" refX="5" refY="3.5" orient="auto" markerUnits="strokeWidth">
    <path d="M0,0 L15,3.5 L0,7 z" stroke="context-stroke" fill="context-stroke"/>
  </marker>
</defs>
<g stroke-width="1" fill="#000000" fill-opacity="0.000" stroke="#D3D3D3" id="img-e4024e54-1">
  <g transform="translate(138.7,55)">
    <path fill="none" d="M20.97,-11.14 L -20.97 11.14" class="primitive"/>
  </g>
  <g transform="translate(160.42,55)">
    <path fill="none" d="M3.17,-9.91 L -3.17 9.91" class="primitive"/>
  </g>
  <g transform="translate(173.57,55)">
    <path fill="none" d="M-6.33,-10.08 L 6.33 10.08" class="primitive"/>
  </g>
  <g transform="translate(186.73,55)">
    <path fill="none" d="M-17.14,-10.88 L 17.14 10.88" class="primitive"/>
  </g>
  <g transform="translate(184,27.22)">
    <path fill="none" d="M-14.77,10.71 L 14.77 -10.71" class="primitive"/>
  </g>
  <g transform="translate(206.14,27.22)">
    <path fill="none" d="M2.13,9.88 L -2.13 -9.88" class="primitive"/>
  </g>
  <g transform="translate(219.3,27.22)">
    <path fill="none" d="M12.24,10.52 L -12.24 -10.52" class="primitive"/>
  </g>
  <g transform="translate(87.68,82.78)">
    <path fill="none" d="M19.81,-11.06 L -19.81 11.06" class="primitive"/>
  </g>
  <g transform="translate(107.68,82.78)">
    <path fill="none" d="M3.48,-9.93 L -3.48 9.93" class="primitive"/>
  </g>
  <g transform="translate(120.84,82.78)">
    <path fill="none" d="M-6.01,-10.06 L 6.01 10.06" class="primitive"/>
  </g>
  <g transform="translate(134,82.78)">
    <path fill="none" d="M-16.77,-10.86 L 16.77 10.86" class="primitive"/>
  </g>
  <g transform="translate(43.07,110.56)">
    <path fill="none" d="M15.28,-10.75 L -15.28 10.75" class="primitive"/>
  </g>
  <g transform="translate(56.23,110.56)">
    <path fill="none" d="M4.73,-9.99 L -4.73 9.99" class="primitive"/>
  </g>
  <g transform="translate(69.39,110.56)">
    <path fill="none" d="M-4.73,-9.99 L 4.73 9.99" class="primitive"/>
  </g>
  <g transform="translate(82.55,110.56)">
    <path fill="none" d="M-15.28,-10.75 L 15.28 10.75" class="primitive"/>
  </g>
</g>
<g stroke-width="1" stroke="#D3D3D3" id="img-e4024e54-2">
</g>
<g font-size="4" stroke="#000000" stroke-opacity="0.000" fill="#000000" id="img-e4024e54-3">
</g>
<g stroke-width="0" stroke="#000000" stroke-opacity="0.000" id="img-e4024e54-4">
  <g transform="translate(164.86,41.11)" fill="#3AAE2B">
    <circle cx="0" cy="0" r="6.79" class="primitive"/>
  </g>
  <g transform="translate(209.14,41.11)" fill="#3AAE2B">
    <circle cx="0" cy="0" r="6.79" class="primitive"/>
  </g>
  <g transform="translate(235.45,41.11)" fill="#3AAE2B">
    <circle cx="0" cy="0" r="6.79" class="primitive"/>
  </g>
  <g transform="translate(112.55,68.89)" fill="#42C331">
    <circle cx="0" cy="0" r="6.79" class="primitive"/>
  </g>
  <g transform="translate(155.97,68.89)" fill="#42C331">
    <circle cx="0" cy="0" r="6.79" class="primitive"/>
  </g>
  <g transform="translate(182.29,68.89)" fill="#42C331">
    <circle cx="0" cy="0" r="6.79" class="primitive"/>
  </g>
  <g transform="translate(208.61,68.89)" fill="#42C331">
    <circle cx="0" cy="0" r="6.79" class="primitive"/>
  </g>
  <g transform="translate(62.81,96.67)" fill="#49D936">
    <circle cx="0" cy="0" r="6.79" class="primitive"/>
  </g>
  <g transform="translate(102.81,96.67)" fill="#49D936">
    <circle cx="0" cy="0" r="6.79" class="primitive"/>
  </g>
  <g transform="translate(129.13,96.67)" fill="#49D936">
    <circle cx="0" cy="0" r="6.79" class="primitive"/>
  </g>
  <g transform="translate(155.45,96.67)" fill="#49D936">
    <circle cx="0" cy="0" r="6.79" class="primitive"/>
  </g>
  <g transform="translate(23.33,124.44)" fill="#50EF3C">
    <circle cx="0" cy="0" r="6.79" class="primitive"/>
  </g>
  <g transform="translate(49.65,124.44)" fill="#50EF3C">
    <circle cx="0" cy="0" r="6.79" class="primitive"/>
  </g>
  <g transform="translate(75.97,124.44)" fill="#50EF3C">
    <circle cx="0" cy="0" r="6.79" class="primitive"/>
  </g>
  <g transform="translate(102.29,124.44)" fill="#50EF3C">
    <circle cx="0" cy="0" r="6.79" class="primitive"/>
  </g>
  <g transform="translate(203.15,13.33)" fill="#339826">
    <circle cx="0" cy="0" r="6.79" class="primitive"/>
  </g>
  <g transform="translate(256.67,146.67)" fill="#FFFFFF">
    <circle cx="0" cy="0" r="6.79" class="primitive"/>
  </g>
</g>
<g font-size="7" stroke="#000000" stroke-opacity="0.000" fill="#000000" id="img-e4024e54-5">
  <g transform="translate(177.36,33.97)">
    <g class="primitive">
      <text text-anchor="middle" dy="0.35em">2020</text>
    </g>
  </g>
  <g transform="translate(221.64,33.97)">
    <g class="primitive">
      <text text-anchor="middle" dy="0.35em">2030</text>
    </g>
  </g>
  <g transform="translate(247.96,33.97)">
    <g class="primitive">
      <text text-anchor="middle" dy="0.35em">2040</text>
    </g>
  </g>
  <g transform="translate(125.06,61.74)">
    <g class="primitive">
      <text text-anchor="middle" dy="0.35em">d001</text>
    </g>
  </g>
  <g transform="translate(168.48,61.74)">
    <g class="primitive">
      <text text-anchor="middle" dy="0.35em">...</text>
    </g>
  </g>
  <g transform="translate(194.8,61.74)">
    <g class="primitive">
      <text text-anchor="middle" dy="0.35em"></text>
    </g>
  </g>
  <g transform="translate(221.12,61.74)">
    <g class="primitive">
      <text text-anchor="middle" dy="0.35em">d365</text>
    </g>
  </g>
  <g transform="translate(75.32,89.52)">
    <g class="primitive">
      <text text-anchor="middle" dy="0.35em">hh0001</text>
    </g>
  </g>
  <g transform="translate(115.32,89.52)">
    <g class="primitive">
      <text text-anchor="middle" dy="0.35em">...</text>
    </g>
  </g>
  <g transform="translate(141.64,89.52)">
    <g class="primitive">
      <text text-anchor="middle" dy="0.35em"></text>
    </g>
  </g>
  <g transform="translate(167.95,89.52)">
    <g class="primitive">
      <text text-anchor="middle" dy="0.35em">hh0006</text>
    </g>
  </g>
  <g transform="translate(35.84,117.3)">
    <g class="primitive">
      <text text-anchor="middle" dy="0.35em">h0001</text>
    </g>
  </g>
  <g transform="translate(62.16,117.3)">
    <g class="primitive">
      <text text-anchor="middle" dy="0.35em">h0002</text>
    </g>
  </g>
  <g transform="translate(88.47,117.3)">
    <g class="primitive">
      <text text-anchor="middle" dy="0.35em">h0003</text>
    </g>
  </g>
  <g transform="translate(114.79,117.3)">
    <g class="primitive">
      <text text-anchor="middle" dy="0.35em">h0004</text>
    </g>
  </g>
  <g transform="translate(215.65,6.19)">
    <g class="primitive">
      <text text-anchor="middle" dy="0.35em"></text>
    </g>
  </g>
  <g transform="translate(269.17,139.52)">
    <g class="primitive">
      <text text-anchor="middle" dy="0.35em"></text>
    </g>
  </g>
</g>
</svg>
